<mxfile host="app.diagrams.net" modified="2021-02-13T11:25:50.265Z" agent="5.0 (Windows NT 10.0; Win64; x64) AppleWebKit/537.36 (KHTML, like Gecko) Chrome/88.0.4324.150 Safari/537.36 Edg/88.0.705.63" etag="tJbyGyS4FTYerQKQbaav" version="14.3.1" type="github">
  <diagram id="3-WlW4mfMaaetGj950E9" name="Page-1">
    <mxGraphModel dx="868" dy="521" grid="1" gridSize="10" guides="1" tooltips="1" connect="1" arrows="1" fold="1" page="1" pageScale="1" pageWidth="850" pageHeight="1100" math="0" shadow="0">
      <root>
        <mxCell id="0" />
        <mxCell id="1" parent="0" />
        <mxCell id="XupttJNbpn4dR53bRSqt-2" value="Take Input from User" style="rounded=1;whiteSpace=wrap;html=1;fillColor=#60a917;strokeColor=#2D7600;fontColor=#ffffff;" vertex="1" parent="1">
          <mxGeometry x="120" y="110" width="120" height="40" as="geometry" />
        </mxCell>
        <mxCell id="XupttJNbpn4dR53bRSqt-4" value="" style="endArrow=classic;html=1;exitX=0.5;exitY=1;exitDx=0;exitDy=0;" edge="1" parent="1" source="XupttJNbpn4dR53bRSqt-2">
          <mxGeometry width="50" height="50" relative="1" as="geometry">
            <mxPoint x="400" y="370" as="sourcePoint" />
            <mxPoint x="180" y="190" as="targetPoint" />
          </mxGeometry>
        </mxCell>
        <mxCell id="XupttJNbpn4dR53bRSqt-5" value="Check Input" style="rhombus;whiteSpace=wrap;html=1;fillColor=#fff2cc;strokeColor=#d6b656;" vertex="1" parent="1">
          <mxGeometry x="120" y="190" width="120" height="60" as="geometry" />
        </mxCell>
        <mxCell id="XupttJNbpn4dR53bRSqt-6" value="" style="endArrow=classic;html=1;exitX=0.5;exitY=1;exitDx=0;exitDy=0;" edge="1" parent="1" source="XupttJNbpn4dR53bRSqt-5">
          <mxGeometry width="50" height="50" relative="1" as="geometry">
            <mxPoint x="400" y="370" as="sourcePoint" />
            <mxPoint x="180" y="300" as="targetPoint" />
          </mxGeometry>
        </mxCell>
        <mxCell id="XupttJNbpn4dR53bRSqt-7" value="" style="endArrow=classic;html=1;exitX=1;exitY=0.5;exitDx=0;exitDy=0;" edge="1" parent="1" source="XupttJNbpn4dR53bRSqt-5">
          <mxGeometry width="50" height="50" relative="1" as="geometry">
            <mxPoint x="400" y="370" as="sourcePoint" />
            <mxPoint x="310" y="220" as="targetPoint" />
          </mxGeometry>
        </mxCell>
        <mxCell id="XupttJNbpn4dR53bRSqt-8" value="Correct" style="text;html=1;strokeColor=none;fillColor=none;align=center;verticalAlign=middle;whiteSpace=wrap;rounded=0;" vertex="1" parent="1">
          <mxGeometry x="250" y="220" width="40" height="20" as="geometry" />
        </mxCell>
        <mxCell id="XupttJNbpn4dR53bRSqt-9" value="&lt;font style=&quot;font-size: 24px&quot;&gt;Hangman Code Flow&lt;/font&gt;" style="text;html=1;strokeColor=none;fillColor=none;align=center;verticalAlign=middle;whiteSpace=wrap;rounded=0;" vertex="1" parent="1">
          <mxGeometry x="240" y="20" width="400" height="20" as="geometry" />
        </mxCell>
        <mxCell id="XupttJNbpn4dR53bRSqt-10" value="Incorrcect" style="text;html=1;strokeColor=none;fillColor=none;align=center;verticalAlign=middle;whiteSpace=wrap;rounded=0;" vertex="1" parent="1">
          <mxGeometry x="170" y="260" width="90" height="20" as="geometry" />
        </mxCell>
        <mxCell id="XupttJNbpn4dR53bRSqt-11" value="Add to &lt;br&gt;Correct Moves" style="rounded=0;whiteSpace=wrap;html=1;fillColor=#f5f5f5;strokeColor=#666666;fontColor=#333333;" vertex="1" parent="1">
          <mxGeometry x="310" y="200" width="110" height="40" as="geometry" />
        </mxCell>
        <mxCell id="XupttJNbpn4dR53bRSqt-12" value="Add to &lt;br&gt;Incorrect Moves" style="rounded=0;whiteSpace=wrap;html=1;fillColor=#f5f5f5;strokeColor=#666666;fontColor=#333333;" vertex="1" parent="1">
          <mxGeometry x="120" y="300" width="120" height="40" as="geometry" />
        </mxCell>
        <mxCell id="XupttJNbpn4dR53bRSqt-14" value="" style="endArrow=classic;html=1;exitX=0.5;exitY=1;exitDx=0;exitDy=0;" edge="1" parent="1" source="XupttJNbpn4dR53bRSqt-12">
          <mxGeometry width="50" height="50" relative="1" as="geometry">
            <mxPoint x="380" y="300" as="sourcePoint" />
            <mxPoint x="180" y="380" as="targetPoint" />
          </mxGeometry>
        </mxCell>
        <mxCell id="XupttJNbpn4dR53bRSqt-22" value="" style="edgeStyle=orthogonalEdgeStyle;rounded=0;orthogonalLoop=1;jettySize=auto;html=1;" edge="1" parent="1" source="XupttJNbpn4dR53bRSqt-16" target="XupttJNbpn4dR53bRSqt-21">
          <mxGeometry relative="1" as="geometry" />
        </mxCell>
        <mxCell id="XupttJNbpn4dR53bRSqt-16" value="Max Wrong&lt;br&gt;Attempts?" style="rhombus;whiteSpace=wrap;html=1;fillColor=#fff2cc;strokeColor=#d6b656;" vertex="1" parent="1">
          <mxGeometry x="120" y="380" width="120" height="60" as="geometry" />
        </mxCell>
        <mxCell id="XupttJNbpn4dR53bRSqt-27" value="" style="edgeStyle=orthogonalEdgeStyle;rounded=0;orthogonalLoop=1;jettySize=auto;html=1;" edge="1" parent="1" source="XupttJNbpn4dR53bRSqt-17" target="XupttJNbpn4dR53bRSqt-26">
          <mxGeometry relative="1" as="geometry" />
        </mxCell>
        <mxCell id="XupttJNbpn4dR53bRSqt-17" value="Word &lt;br&gt;Completed?" style="rhombus;whiteSpace=wrap;html=1;fillColor=#fff2cc;strokeColor=#d6b656;" vertex="1" parent="1">
          <mxGeometry x="470" y="190" width="120" height="60" as="geometry" />
        </mxCell>
        <mxCell id="XupttJNbpn4dR53bRSqt-18" value="" style="endArrow=classic;html=1;entryX=0;entryY=0.5;entryDx=0;entryDy=0;exitX=1;exitY=0.5;exitDx=0;exitDy=0;" edge="1" parent="1" source="XupttJNbpn4dR53bRSqt-11" target="XupttJNbpn4dR53bRSqt-17">
          <mxGeometry width="50" height="50" relative="1" as="geometry">
            <mxPoint x="500" y="290" as="sourcePoint" />
            <mxPoint x="430" y="250" as="targetPoint" />
          </mxGeometry>
        </mxCell>
        <mxCell id="XupttJNbpn4dR53bRSqt-21" value="Game Over" style="whiteSpace=wrap;html=1;fillColor=#e51400;strokeColor=#B20000;fontColor=#ffffff;" vertex="1" parent="1">
          <mxGeometry x="310" y="390" width="100" height="40" as="geometry" />
        </mxCell>
        <mxCell id="XupttJNbpn4dR53bRSqt-23" value="Yes" style="text;html=1;strokeColor=none;fillColor=none;align=center;verticalAlign=middle;whiteSpace=wrap;rounded=0;" vertex="1" parent="1">
          <mxGeometry x="250" y="390" width="40" height="20" as="geometry" />
        </mxCell>
        <mxCell id="XupttJNbpn4dR53bRSqt-24" value="" style="endArrow=classic;html=1;exitX=0;exitY=0.5;exitDx=0;exitDy=0;entryX=0;entryY=0.5;entryDx=0;entryDy=0;" edge="1" parent="1" source="XupttJNbpn4dR53bRSqt-16" target="XupttJNbpn4dR53bRSqt-2">
          <mxGeometry width="50" height="50" relative="1" as="geometry">
            <mxPoint x="380" y="290" as="sourcePoint" />
            <mxPoint x="430" y="240" as="targetPoint" />
            <Array as="points">
              <mxPoint x="60" y="410" />
              <mxPoint x="60" y="130" />
            </Array>
          </mxGeometry>
        </mxCell>
        <mxCell id="XupttJNbpn4dR53bRSqt-25" value="No" style="text;html=1;strokeColor=none;fillColor=none;align=center;verticalAlign=middle;whiteSpace=wrap;rounded=0;" vertex="1" parent="1">
          <mxGeometry x="80" y="390" width="40" height="20" as="geometry" />
        </mxCell>
        <mxCell id="XupttJNbpn4dR53bRSqt-26" value="User Wins" style="whiteSpace=wrap;html=1;strokeColor=#36393d;fillColor=#66FF66;" vertex="1" parent="1">
          <mxGeometry x="470" y="300" width="120" height="30" as="geometry" />
        </mxCell>
        <mxCell id="XupttJNbpn4dR53bRSqt-28" value="Yes" style="text;html=1;strokeColor=none;fillColor=none;align=center;verticalAlign=middle;whiteSpace=wrap;rounded=0;" vertex="1" parent="1">
          <mxGeometry x="530" y="260" width="40" height="20" as="geometry" />
        </mxCell>
        <mxCell id="XupttJNbpn4dR53bRSqt-31" value="" style="endArrow=classic;html=1;exitX=0.5;exitY=0;exitDx=0;exitDy=0;entryX=1;entryY=0.5;entryDx=0;entryDy=0;" edge="1" parent="1" source="XupttJNbpn4dR53bRSqt-17" target="XupttJNbpn4dR53bRSqt-2">
          <mxGeometry width="50" height="50" relative="1" as="geometry">
            <mxPoint x="380" y="280" as="sourcePoint" />
            <mxPoint x="430" y="230" as="targetPoint" />
            <Array as="points">
              <mxPoint x="530" y="130" />
            </Array>
          </mxGeometry>
        </mxCell>
        <mxCell id="XupttJNbpn4dR53bRSqt-32" value="No" style="text;html=1;strokeColor=none;fillColor=none;align=center;verticalAlign=middle;whiteSpace=wrap;rounded=0;" vertex="1" parent="1">
          <mxGeometry x="530" y="150" width="40" height="20" as="geometry" />
        </mxCell>
      </root>
    </mxGraphModel>
  </diagram>
</mxfile>
